<?xml version="1.0"?><svg fill="#61dafb" xmlns="http://www.w3.org/2000/svg"  viewBox="0 0 100 100" width="100px" height="100px">    <path d="M 62.5 15 C 60.816 15 59.400266 16.206875 59.072266 17.796875 L 48.388672 19.005859 C 39.977672 19.958859 35.050391 23.171688 34.150391 26.054688 C 27.762391 26.882687 21 36.895 21 51 C 21 68.645 35.355 83 53 83 C 67.545 83 74.271672 78.737078 74.513672 78.580078 C 75.430672 78.041078 76 77.054 76 76 C 76 74.457 74.829125 73.181578 73.328125 73.017578 C 75.315125 70.830578 76 69.48 76 68 C 76 65.794 74.206 64 72 64 C 71.718 64 71.429344 64.033703 71.152344 64.095703 C 69.425344 64.416703 67.772422 65.670094 65.857422 67.121094 C 62.404422 69.740094 58.107 73 51 73 C 44.383 73 39 67.617 39 61 C 39 58.614 39.883922 56.326687 41.044922 54.304688 C 41.597922 54.853687 42.473297 56.020187 43.029297 58.242188 C 43.143297 58.697188 43.550047 59 43.998047 59 C 44.078047 59 44.161188 58.990703 44.242188 58.970703 C 44.778188 58.836703 45.104703 58.292812 44.970703 57.757812 C 44.220703 54.756813 42.933766 53.259031 42.134766 52.582031 C 42.752766 51.686031 43.391234 50.867578 43.990234 50.142578 C 45.022234 50.758578 47.649469 52.534266 49.105469 55.447266 C 49.280469 55.797266 49.634953 56 50.001953 56 C 50.151953 56 50.304266 55.965531 50.447266 55.894531 C 50.941266 55.647531 51.141531 55.046734 50.894531 54.552734 C 49.327531 51.418734 46.664734 49.452609 45.302734 48.599609 C 45.856734 47.953609 46.519172 46.999656 46.826172 45.597656 C 48.698172 46.681656 52.191219 48.924609 54.199219 51.599609 C 54.395219 51.862609 54.696953 52 55.001953 52 C 55.210953 52 55.419609 51.935781 55.599609 51.800781 C 56.041609 51.469781 56.132781 50.841391 55.800781 50.400391 C 53.673781 47.563391 50.193906 45.252156 48.128906 44.035156 C 49.395906 43.388156 50.687859 42.734312 52.005859 42.070312 C 61.184859 37.442312 70.677969 32.657328 73.792969 28.611328 C 74.024969 28.309328 74.064484 27.900594 73.896484 27.558594 C 73.728484 27.216594 73.381 27 73 27 L 69.404297 27 L 80.541016 19.841797 C 80.939016 19.585797 81.104594 19.083625 80.933594 18.640625 C 80.762594 18.198625 80.297938 17.938672 79.835938 18.013672 L 73.351562 19.095703 L 75.496094 17.867188 C 75.908094 17.632188 76.099172 17.140453 75.951172 16.689453 C 75.804172 16.237453 75.350672 15.960859 74.888672 16.005859 L 65.675781 17.048828 C 65.119781 15.845828 63.906 15 62.5 15 z M 70.289062 18.539062 L 67.503906 20.132812 C 67.082906 20.372812 66.896594 20.878937 67.058594 21.335938 C 67.221594 21.791937 67.693063 22.062328 68.164062 21.986328 L 75.375 20.785156 L 65.458984 27.158203 C 65.085984 27.397203 64.914063 27.85525 65.039062 28.28125 C 65.165062 28.70725 65.557 29 66 29 L 70.638672 29 C 66.680672 32.431 58.469469 36.570203 51.105469 40.283203 C 49.199469 41.244203 47.322969 42.191328 45.542969 43.111328 C 45.528969 43.119328 45.517906 43.130672 45.503906 43.138672 C 43.177906 41.749672 41.235375 39.773141 39.734375 37.244141 C 39.593375 37.007141 39.288781 36.929312 39.050781 37.070312 C 38.813781 37.211312 38.734 37.517859 38.875 37.755859 C 40.464 40.433859 42.525 42.527906 45 44.003906 C 44.999 45.674906 44.365141 46.631703 43.744141 47.345703 C 41.388141 50.062703 37 55.121 37 61 C 37 68.557 43.022578 74.718563 50.517578 74.976562 C 50.474578 76.338562 50.13125 78.908953 48.28125 80.626953 C 43.35925 79.845953 38.831766 77.863234 35.009766 74.990234 C 36.332766 74.570234 38.137109 73.852266 39.787109 72.697266 C 40.013109 72.539266 40.069156 72.227953 39.910156 72.001953 C 39.752156 71.774953 39.439844 71.720906 39.214844 71.878906 C 37.385844 73.159906 35.299922 73.881422 34.044922 74.232422 C 30.523922 71.353422 27.671094 67.689672 25.746094 63.513672 C 27.805094 63.442672 31.448828 63.067719 35.673828 61.511719 C 35.932828 61.416719 36.066703 61.128141 35.970703 60.869141 C 35.874703 60.609141 35.585125 60.475266 35.328125 60.572266 C 30.962125 62.180266 27.180734 62.481578 25.302734 62.517578 C 23.820734 58.968578 23 55.079 23 51 C 23 48.901 23.167406 46.937891 23.441406 45.087891 C 24.849406 46.329891 27.411906 48.352766 31.253906 50.509766 C 31.331906 50.552766 31.415047 50.572266 31.498047 50.572266 C 31.673047 50.572266 31.843547 50.481359 31.935547 50.318359 C 32.070547 50.077359 31.984141 49.772719 31.744141 49.636719 C 27.507141 47.259719 24.837906 45.017391 23.628906 43.900391 C 25.447906 33.905391 30.886 28 35 28 C 35.553 28 36 27.553 36 27 C 36 25.453 39.808328 21.990141 48.611328 20.994141 L 59.253906 19.789062 C 59.770906 21.080062 61.031 22 62.5 22 C 64.243 22 65.685313 20.70425 65.945312 19.03125 L 70.289062 18.539062 z M 36.570312 30.003906 C 36.506141 29.994906 36.439047 29.998828 36.373047 30.017578 C 36.105047 30.087578 35.946578 30.360953 36.017578 30.626953 C 36.101578 30.949953 36.194875 31.288625 36.296875 31.640625 C 36.359875 31.859625 36.559391 32 36.775391 32 C 36.821391 32 36.869016 31.994469 36.916016 31.980469 C 37.181016 31.903469 37.334813 31.625375 37.257812 31.359375 C 37.157812 31.017375 37.067375 30.688047 36.984375 30.373047 C 36.932625 30.172797 36.762828 30.030906 36.570312 30.003906 z M 37.453125 33 C 37.388266 32.996812 37.322313 33.006047 37.257812 33.029297 C 36.997813 33.125297 36.863984 33.412875 36.958984 33.671875 C 37.218984 34.378875 37.501781 35.065938 37.800781 35.710938 C 37.885781 35.893937 38.065906 36 38.253906 36 C 38.323906 36 38.397844 35.984125 38.464844 35.953125 C 38.715844 35.837125 38.822031 35.539062 38.707031 35.289062 C 38.420031 34.668062 38.147438 34.010125 37.898438 33.328125 C 37.827188 33.132375 37.647703 33.009563 37.453125 33 z M 33.535156 50.644531 C 33.340719 50.630609 33.148438 50.731516 33.054688 50.916016 C 32.928688 51.162016 33.025484 51.464844 33.271484 51.589844 C 34.570484 52.251844 35.927687 52.882844 37.304688 53.464844 C 37.367688 53.490844 37.433047 53.503906 37.498047 53.503906 C 37.692047 53.503906 37.879938 53.389266 37.960938 53.197266 C 38.068937 52.943266 37.948359 52.650969 37.693359 52.542969 C 36.339359 51.970969 35.004562 51.349266 33.726562 50.697266 C 33.665312 50.666016 33.599969 50.649172 33.535156 50.644531 z M 72 66 C 73.103 66 74 66.897 74 68 C 74 69.157 73.046766 70.527219 70.384766 73.199219 C 68.249766 74.644219 61.761484 78.270859 51.021484 78.005859 C 51.389484 76.847859 51.501484 75.747375 51.521484 74.984375 C 58.990484 74.824375 63.648406 71.307797 67.066406 68.716797 C 68.778406 67.418797 70.256734 66.297641 71.552734 66.056641 C 71.719734 66.018641 71.866 66 72 66 z M 70.167969 74.535156 C 70.349969 74.818156 70.657 75 71 75 L 73 75 C 73.552 75 74 75.448 74 76 C 74 76.353 73.813844 76.672906 73.464844 76.878906 C 73.400844 76.919906 66.885 81 53 81 C 51.819 81 50.655766 80.923063 49.509766 80.789062 C 49.991766 80.228062 50.360578 79.618953 50.642578 79.001953 C 51.160578 79.018953 51.670922 79.029297 52.169922 79.029297 C 61.528922 79.029297 67.483969 76.191156 70.167969 74.535156 z"/></svg>
